<svg width="197" height="48" viewBox="0 0 197 48" fill="none" xmlns="http://www.w3.org/2000/svg">
<rect width="197" height="48" rx="3" fill="white"/>
<path d="M39.042 23.484C40.1167 23.8827 40.9487 24.4633 41.538 25.226C42.1273 25.9887 42.422 26.9073 42.422 27.982C42.422 29.5767 41.7633 30.816 40.446 31.7C39.1287 32.5667 37.222 33 34.726 33H24.482V14.8H34.206C36.6327 14.8 38.4613 15.2333 39.692 16.1C40.94 16.9667 41.564 18.1193 41.564 19.558C41.564 20.4073 41.3473 21.17 40.914 21.846C40.498 22.522 39.874 23.068 39.042 23.484ZM30.514 19.09V21.794H33.374C34.7087 21.794 35.376 21.3433 35.376 20.442C35.376 19.5407 34.7087 19.09 33.374 19.09H30.514ZM34.206 28.71C35.558 28.71 36.234 28.2333 36.234 27.28C36.234 26.3267 35.558 25.85 34.206 25.85H30.514V28.71H34.206ZM45.1114 14.8H51.2474V28.242H59.4634V33H45.1114V14.8ZM70.2613 33.416C67.4706 33.416 65.2953 32.662 63.7353 31.154C62.1753 29.646 61.3953 27.5313 61.3953 24.81V14.8H67.5313V24.628C67.5313 25.9627 67.7653 26.9333 68.2333 27.54C68.7186 28.1467 69.412 28.45 70.3133 28.45C71.2146 28.45 71.8993 28.1467 72.3673 27.54C72.8526 26.9333 73.0953 25.9627 73.0953 24.628V14.8H79.1273V24.81C79.1273 27.5313 78.3473 29.646 76.7873 31.154C75.2273 32.662 73.052 33.416 70.2613 33.416ZM97.02 23.484C98.0946 23.8827 98.9266 24.4633 99.516 25.226C100.105 25.9887 100.4 26.9073 100.4 27.982C100.4 29.5767 99.7413 30.816 98.424 31.7C97.1066 32.5667 95.2 33 92.704 33H82.46V14.8H92.184C94.6106 14.8 96.4393 15.2333 97.67 16.1C98.918 16.9667 99.542 18.1193 99.542 19.558C99.542 20.4073 99.3253 21.17 98.892 21.846C98.476 22.522 97.852 23.068 97.02 23.484ZM88.492 19.09V21.794H91.352C92.6866 21.794 93.354 21.3433 93.354 20.442C93.354 19.5407 92.6866 19.09 91.352 19.09H88.492ZM92.184 28.71C93.536 28.71 94.212 28.2333 94.212 27.28C94.212 26.3267 93.536 25.85 92.184 25.85H88.492V28.71H92.184ZM103.089 14.8H109.225V28.242H117.441V33H103.089V14.8ZM128.944 33.416C126.986 33.416 125.226 33.0087 123.666 32.194C122.106 31.3793 120.884 30.2527 120 28.814C119.116 27.358 118.674 25.72 118.674 23.9C118.674 22.08 119.116 20.4507 120 19.012C120.884 17.556 122.106 16.4207 123.666 15.606C125.226 14.7913 126.986 14.384 128.944 14.384C130.903 14.384 132.662 14.7913 134.222 15.606C135.782 16.4207 137.004 17.556 137.888 19.012C138.772 20.4507 139.214 22.08 139.214 23.9C139.214 25.72 138.772 27.358 137.888 28.814C137.004 30.2527 135.782 31.3793 134.222 32.194C132.662 33.0087 130.903 33.416 128.944 33.416ZM128.944 28.45C129.707 28.45 130.392 28.268 130.998 27.904C131.622 27.5227 132.116 26.994 132.48 26.318C132.844 25.6247 133.026 24.8187 133.026 23.9C133.026 22.9813 132.844 22.184 132.48 21.508C132.116 20.8147 131.622 20.286 130.998 19.922C130.392 19.5407 129.707 19.35 128.944 19.35C128.182 19.35 127.488 19.5407 126.864 19.922C126.258 20.286 125.772 20.8147 125.408 21.508C125.044 22.184 124.862 22.9813 124.862 23.9C124.862 24.8187 125.044 25.6247 125.408 26.318C125.772 26.994 126.258 27.5227 126.864 27.904C127.488 28.268 128.182 28.45 128.944 28.45ZM151.373 33.416C149.449 33.416 147.716 33.0173 146.173 32.22C144.631 31.4053 143.417 30.2787 142.533 28.84C141.667 27.384 141.233 25.7373 141.233 23.9C141.233 22.0627 141.667 20.4247 142.533 18.986C143.417 17.53 144.631 16.4033 146.173 15.606C147.716 14.7913 149.449 14.384 151.373 14.384C153.141 14.384 154.719 14.696 156.105 15.32C157.492 15.944 158.636 16.8453 159.537 18.024L155.663 21.482C154.537 20.0607 153.211 19.35 151.685 19.35C150.403 19.35 149.371 19.766 148.591 20.598C147.811 21.4127 147.421 22.5133 147.421 23.9C147.421 25.2867 147.811 26.396 148.591 27.228C149.371 28.0427 150.403 28.45 151.685 28.45C153.211 28.45 154.537 27.7393 155.663 26.318L159.537 29.776C158.636 30.9547 157.492 31.856 156.105 32.48C154.719 33.104 153.141 33.416 151.373 33.416ZM169.239 26.968L167.861 28.502V33H161.829V14.8H167.861V21.404L173.841 14.8H180.523L173.243 22.808L180.887 33H173.789L169.239 26.968Z" fill="url(#paint0_linear_518_284)"/>
<defs>
<linearGradient id="paint0_linear_518_284" x1="23" y1="24" x2="181" y2="24" gradientUnits="userSpaceOnUse">
<stop stop-color="#022BFF"/>
<stop offset="1" stop-color="#000066"/>
</linearGradient>
</defs>
</svg>
